<svg id="Layer_1" data-name="Layer 1" xmlns="http://www.w3.org/2000/svg" viewBox="0 0 22 19.8"><defs><style>.cls-1{fill:#e0e0e0;}.cls-2,.cls-3,.cls-4,.cls-6{fill:#9ede41;}.cls-2,.cls-5{stroke:#292c5e;}.cls-2,.cls-3,.cls-4,.cls-5,.cls-7,.cls-8{stroke-miterlimit:10;stroke-width:0.09px;}.cls-3{stroke:#262b70;}.cls-4{stroke:#374297;}.cls-5,.cls-7,.cls-9{fill:#54c00f;}.cls-7{stroke:#000068;}.cls-8{fill:#a1cc45;stroke:#2f3191;}</style></defs><rect class="cls-1" x="12.07" y="11.38" width="1.23" height="1.34"/><rect class="cls-1" x="12.07" y="5.46" width="1.11" height="1.3"/><rect class="cls-1" x="12.04" y="7.31" width="1.11" height="1.36"/><rect class="cls-1" x="12.08" y="9.21" width="1.11" height="1.36"/><rect class="cls-1" x="14.14" y="9.26" width="1.11" height="1.36"/><rect class="cls-1" x="14.09" y="11.09" width="1.11" height="1.36"/><rect class="cls-1" x="15.22" y="12.93" width="1.11" height="1.36"/><rect class="cls-1" x="9.92" y="11.12" width="1.11" height="1.45"/><polygon class="cls-2" points="11.15 4.53 8.25 4.53 8.25 1.61 11.15 1.46 11.15 4.53"/><rect class="cls-3" x="8.27" y="4.75" width="2.9" height="3.08"/><rect class="cls-4" x="8.32" y="8.05" width="2.9" height="3.08"/><rect class="cls-1" x="7.84" y="11.11" width="1.13" height="1.36"/><rect class="cls-1" x="5.83" y="11.11" width="1.11" height="1.36"/><rect class="cls-1" x="3.51" y="11.19" width="1.11" height="1.36"/><rect class="cls-1" x="3.51" y="9.21" width="1.11" height="1.36"/><rect class="cls-1" x="3.49" y="7.38" width="1.11" height="1.36"/><rect class="cls-1" x="3.51" y="5.45" width="1.11" height="1.36"/><rect class="cls-1" x="7.88" y="5.41" width="0.34" height="1.36"/><rect class="cls-1" x="7.89" y="7.3" width="0.37" height="1.36"/><rect class="cls-1" x="7.89" y="9.26" width="0.37" height="1.36"/><rect class="cls-1" x="5.76" y="7.51" width="1.14" height="0.59"/><path class="cls-5" d="M.36,15.21l4.81-2.76,1,1.5,4.09-2.35L11.36,13l1.1-.59.56-.27h0L13.3,12l1.92-.93-.41-.85,2.59,0-1.33,2.3-.54-.8L11.1,14l-.92-1.37s-.59.34-1,.57-3.19,1.7-3.19,1.7-.75-1.57-1.1-1.52S.9,15.76.9,15.76.36,16,.36,15.21Z"/><path class="cls-6" d="M7.7,7.52H7.59l-2.82,0s.6-2.77,2.94-2.83"/><path class="cls-7" d="M7.59,4.71a2.43,2.43,0,0,0-1.19.38A3.31,3.31,0,0,0,4.8,7.5l1.39,0S7.14,4.77,7.59,4.71Z"/><path class="cls-8" d="M4.82,8.15H7.63l0,2.86A3.13,3.13,0,0,1,4.82,8.15Z"/><path class="cls-7" d="M4.71,8.13a2.91,2.91,0,0,0,1.13,2l0-1.51.3,0L6,8.14Z"/><path class="cls-5" d="M4.87,16.51l4.81-2.77,1,1.5,4.1-2.35,1.07,1.42,1.1-.59.56-.27h0l.27-.12,1.92-.93-.41-.85,2.59,0-1.33,2.3L20,13l-4.43,2.27-.92-1.37s-.59.34-1,.57-3.19,1.71-3.19,1.71-.74-1.58-1.1-1.53-3.94,2.38-3.94,2.38S4.87,17.28,4.87,16.51Z"/><polygon class="cls-9" points="11.06 1.57 11.06 2.83 9.37 4.37 8.36 4.4 8.31 1.73 11.06 1.57"/></svg>